<?xml version="1.0" standalone="no"?>
<!DOCTYPE svg PUBLIC "-//W3C//DTD SVG 20010904//EN"
 "http://www.w3.org/TR/2001/REC-SVG-20010904/DTD/svg10.dtd">
<svg version="1.0" xmlns="http://www.w3.org/2000/svg"
 width="2000.000000pt" height="2000.000000pt" viewBox="0 0 2000.000000 2000.000000"
 preserveAspectRatio="xMidYMid meet">
<metadata>
Created by potrace 1.14, written by Peter Selinger 2001-2017
</metadata>
<g transform="translate(0.000000,2000.000000) scale(0.100000,-0.100000)"
fill="#000000" stroke="none">
<path d="M7146 15205 c-199 -198 -388 -563 -440 -845 -2 -14 -7 -36 -10 -50
-29 -121 -36 -508 -12 -670 2 -19 8 -57 11 -83 4 -27 8 -56 9 -65 2 -10 7 -39
11 -67 5 -27 9 -52 10 -55 1 -3 7 -32 14 -65 64 -299 207 -657 363 -909 44
-72 163 -243 177 -256 4 -3 35 -39 70 -80 79 -92 194 -207 281 -280 36 -30 67
-57 70 -60 18 -20 149 -113 245 -175 99 -63 303 -175 319 -175 3 0 -19 37 -48
83 -61 93 -141 248 -184 358 -31 77 -95 279 -108 339 -4 19 -8 37 -9 40 -1 3
-4 19 -8 35 -4 17 -9 46 -12 65 -3 19 -10 60 -15 90 -34 202 -30 496 11 675
13 59 12 63 -23 81 -57 29 -210 148 -289 225 -199 194 -349 430 -433 680 -20
61 -53 195 -60 247 -3 23 -9 61 -12 85 -4 23 -7 101 -7 172 -1 155 7 229 38
380 19 89 54 200 90 281 13 30 20 54 15 54 -5 0 -34 -25 -64 -55z"/>
<path d="M12799 15222 c27 -53 86 -226 100 -292 6 -30 14 -66 17 -80 14 -69
19 -140 19 -300 0 -182 -6 -255 -31 -360 -3 -14 -8 -36 -11 -50 -20 -109 -117
-327 -210 -470 -136 -209 -343 -414 -513 -507 -91 -50 -90 -49 -80 -84 5 -16
12 -53 16 -82 3 -28 8 -65 11 -82 8 -58 11 -400 3 -455 -4 -30 -11 -75 -14
-100 -46 -322 -174 -679 -327 -908 -27 -41 -49 -78 -49 -83 0 -8 216 100 250
125 8 6 31 20 50 30 50 27 207 133 260 175 111 88 266 234 340 321 12 14 31
36 43 50 154 178 311 439 412 685 38 91 103 268 110 295 2 8 14 53 28 100 24
83 71 285 81 345 2 17 8 50 12 75 33 197 36 424 9 630 -19 150 -84 375 -147
508 -65 137 -173 311 -257 412 -47 57 -128 140 -136 140 -3 0 3 -17 14 -38z"/>
<path d="M9998 14355 c-3 -6 -16 -49 -27 -95 -60 -248 -237 -711 -423 -1110
-25 -52 -58 -124 -74 -160 -16 -36 -41 -90 -55 -120 -15 -30 -24 -60 -20 -66
5 -10 70 -84 192 -218 25 -28 60 -67 76 -86 61 -71 60 -59 58 -480 -1 -212 -3
-391 -3 -398 -2 -13 -151 84 -302 197 -70 53 -221 195 -266 251 -97 123 -194
330 -219 468 -2 15 -8 45 -12 67 -10 54 -10 335 0 410 5 33 20 112 33 175 14
63 27 124 29 135 12 54 80 247 125 351 28 64 49 119 46 121 -4 5 -141 -87
-179 -121 -173 -152 -300 -311 -390 -491 -43 -88 -93 -231 -106 -310 -6 -33
-13 -76 -16 -95 -8 -47 -9 -248 -2 -285 4 -16 9 -49 12 -73 26 -186 131 -431
262 -605 91 -122 201 -229 362 -351 249 -190 334 -273 426 -415 62 -96 132
-254 150 -341 2 -8 8 -36 14 -62 27 -116 36 -378 18 -508 -19 -134 -66 -321
-82 -327 -6 -2 -25 52 -44 119 -61 221 -117 352 -210 493 -52 80 -50 77 -127
170 -101 121 -345 378 -353 370 -2 -3 -6 -18 -7 -33 -14 -181 -18 -236 -18
-287 0 -67 12 -216 19 -237 2 -7 6 -26 8 -43 9 -60 38 -155 93 -306 63 -173
90 -259 104 -339 14 -79 20 -189 10 -195 -5 -3 -41 38 -81 92 -164 221 -325
329 -544 366 l-80 13 -2 35 c-13 283 -45 422 -138 594 -196 361 -470 601 -877
765 -57 22 -112 45 -123 49 -11 5 -65 25 -120 46 -273 103 -461 224 -669 431
-377 374 -641 897 -701 1384 -4 30 -9 66 -10 80 -5 34 -18 266 -18 315 0 54
13 277 17 284 2 3 7 32 10 64 4 32 9 64 11 70 3 7 6 23 9 37 2 14 12 51 21 83
9 32 15 61 12 64 -8 7 -88 -99 -144 -188 -102 -164 -215 -441 -239 -589 -3
-14 -7 -36 -9 -50 -13 -63 -15 -79 -22 -150 -13 -147 -4 -411 17 -520 5 -25
11 -58 14 -75 6 -45 45 -192 68 -260 55 -160 158 -373 251 -518 112 -173 326
-414 486 -547 29 -25 58 -50 65 -55 27 -25 250 -175 310 -210 57 -32 242 -125
250 -125 3 0 29 -11 58 -23 29 -13 76 -32 103 -41 28 -10 59 -22 70 -27 11 -5
54 -20 95 -35 367 -128 590 -316 660 -557 21 -71 31 -127 24 -138 -2 -5 -30 7
-62 25 -137 79 -457 246 -472 246 -11 0 41 -134 100 -257 110 -226 300 -455
500 -604 330 -244 411 -300 924 -642 l399 -265 22 26 c67 81 130 201 180 343
35 102 54 138 56 109 4 -71 13 -123 34 -196 46 -155 104 -245 203 -313 31 -21
59 -39 62 -39 3 0 18 -6 34 -12 40 -15 139 -28 184 -23 177 15 325 134 394
315 21 56 24 71 33 188 7 78 19 108 31 74 24 -69 103 -244 146 -324 66 -125
87 -153 106 -145 14 5 767 506 887 590 245 171 412 290 425 302 8 7 38 32 65
55 220 187 360 388 464 671 21 56 42 111 46 121 6 15 -16 6 -96 -36 -166 -88
-259 -139 -329 -179 l-65 -37 -3 29 c-5 44 24 146 65 229 29 58 59 96 128 165
125 124 216 176 480 276 283 107 422 169 575 257 486 280 849 679 1035 1137
33 81 81 221 90 264 2 9 9 32 15 51 9 30 26 119 45 225 19 111 25 409 11 505
-4 25 -9 65 -11 90 -3 25 -7 54 -9 65 -32 148 -48 202 -92 320 -59 158 -199
405 -277 489 -33 35 -33 34 -3 -68 23 -75 29 -101 41 -181 3 -16 7 -41 10 -55
21 -106 21 -505 0 -605 -2 -11 -7 -42 -10 -68 -40 -339 -235 -825 -432 -1082
-13 -16 -27 -34 -31 -40 -4 -5 -30 -39 -57 -75 -160 -211 -474 -464 -691 -558
-137 -59 -421 -172 -432 -172 -7 0 -12 -4 -12 -10 0 -5 -6 -10 -14 -10 -8 0
-64 -25 -124 -55 -267 -134 -445 -294 -615 -552 -138 -209 -195 -374 -213
-618 -10 -136 -10 -137 -46 -142 -35 -6 -141 -33 -163 -42 -11 -5 -45 -19 -75
-31 -128 -52 -246 -155 -353 -307 -32 -46 -63 -83 -69 -83 -10 0 -6 142 7 200
2 14 7 34 9 45 2 11 40 128 84 260 45 132 89 278 98 325 19 91 25 325 11 435
-17 139 -20 155 -28 155 -10 0 -60 -50 -140 -140 -90 -102 -170 -192 -186
-208 -7 -8 -26 -30 -41 -50 -15 -21 -33 -44 -41 -52 -25 -26 -117 -172 -149
-235 -30 -61 -78 -186 -86 -228 -3 -12 -17 -70 -31 -129 -39 -156 -46 -150
-90 72 -9 43 -25 156 -30 217 -7 70 -8 330 -2 340 3 5 8 30 11 57 4 27 9 53
11 56 2 4 7 21 10 38 5 30 26 101 44 147 4 11 28 63 54 115 91 183 179 278
427 463 160 119 301 247 374 337 105 129 241 392 262 505 1 6 6 28 12 50 27
98 37 192 36 330 -1 345 -161 678 -464 972 -70 68 -226 192 -242 193 -4 0 6
-26 21 -57 16 -32 41 -87 56 -123 15 -36 34 -79 41 -97 41 -93 115 -359 129
-463 30 -222 25 -395 -16 -565 -5 -22 -11 -47 -13 -56 -11 -44 -73 -177 -116
-249 -84 -140 -188 -251 -353 -375 -40 -30 -77 -59 -82 -63 -35 -28 -196 -132
-205 -132 -6 0 -10 65 -11 188 -2 527 0 601 12 624 13 26 124 152 239 271 41
43 76 82 78 87 2 4 -22 62 -54 127 -75 156 -144 304 -144 308 0 2 -15 36 -34
77 -19 40 -48 107 -66 148 -17 41 -35 84 -40 95 -74 161 -233 649 -262 800 -2
11 -6 15 -10 10z"/>
<path d="M4886 11987 c-9 -34 -19 -71 -21 -82 -2 -11 -7 -33 -10 -50 -3 -16
-8 -36 -10 -43 -19 -55 -27 -379 -12 -517 47 -446 346 -902 751 -1149 38 -23
149 -79 196 -99 89 -38 320 -105 420 -122 19 -3 42 -8 50 -10 8 -2 31 -7 50
-9 19 -3 44 -7 55 -10 12 -2 48 -7 80 -11 33 -4 67 -9 76 -10 9 -2 40 -6 69
-10 29 -4 62 -8 73 -11 10 -2 45 -6 76 -9 31 -3 65 -8 76 -10 11 -2 45 -7 75
-10 30 -4 101 -14 157 -24 66 -11 100 -14 95 -7 -4 6 -32 49 -63 96 -109 164
-172 318 -200 483 l-13 77 -40 0 c-158 0 -507 9 -536 14 -19 3 -55 10 -80 16
-25 6 -65 16 -90 22 -137 34 -355 133 -495 226 -125 83 -322 278 -417 412 -98
139 -207 367 -233 490 -2 8 -11 48 -19 88 -18 83 -26 145 -31 250 -2 41 -5 76
-7 78 -2 2 -12 -25 -22 -59z"/>
<path d="M15090 12020 c-1 -3 -3 -23 -5 -45 -14 -204 -37 -315 -102 -477 -115
-293 -295 -541 -520 -721 -59 -46 -188 -131 -203 -132 -3 -1 -21 -9 -40 -20
-19 -11 -37 -20 -40 -20 -3 -1 -23 -9 -45 -19 -189 -84 -435 -131 -724 -136
-86 -1 -178 -3 -205 -4 l-50 -1 -12 -65 c-7 -36 -22 -94 -34 -130 -33 -100
-144 -319 -198 -391 -59 -80 -69 -94 -54 -85 10 6 210 39 312 51 25 3 56 7 70
10 14 3 45 8 70 10 25 3 56 8 70 10 30 6 60 10 165 25 44 6 89 13 100 14 11 2
40 7 65 11 25 3 77 13 115 20 39 8 84 16 100 19 48 9 224 61 285 85 102 41
322 166 350 200 3 3 23 19 45 36 42 31 150 137 200 195 177 207 315 494 360
747 19 114 23 175 20 313 -2 85 -6 169 -9 185 -13 66 -19 101 -21 115 -7 57
-59 218 -65 200z"/>
<path d="M4570 9639 c0 -15 46 -167 72 -239 132 -363 431 -694 748 -829 30
-13 62 -27 71 -31 20 -10 154 -46 199 -54 19 -3 46 -8 60 -11 67 -15 294 -5
405 16 28 6 64 12 80 14 17 3 51 9 76 15 l46 11 -62 93 c-58 87 -182 291 -187
309 -2 5 62 30 142 57 80 26 186 64 236 84 50 20 96 36 102 36 26 0 18 23 -43
126 -36 60 -68 117 -71 127 -7 23 -11 23 -106 -22 -96 -44 -253 -100 -330
-115 -16 -3 -38 -8 -50 -11 -53 -11 -74 -15 -142 -22 -210 -23 -463 0 -646 59
-169 54 -389 187 -510 308 -40 39 -90 83 -90 79z"/>
<path d="M15385 9608 c-49 -51 -201 -175 -262 -214 -118 -75 -329 -161 -443
-179 -25 -4 -54 -9 -65 -12 -88 -18 -409 -25 -480 -10 -11 3 -41 8 -67 11 -78
11 -215 54 -354 112 -72 30 -137 54 -145 54 -9 0 -23 -15 -32 -32 -9 -18 -23
-44 -31 -58 -60 -101 -86 -154 -79 -161 4 -4 53 -26 108 -49 55 -22 109 -45
120 -50 11 -5 76 -30 145 -56 69 -26 129 -50 133 -54 4 -4 -10 -29 -31 -56
-21 -27 -58 -78 -83 -114 -24 -35 -50 -71 -56 -80 -49 -61 -101 -136 -97 -141
2 -4 27 -10 56 -14 29 -4 62 -9 73 -11 19 -3 46 -7 165 -22 98 -13 291 -3 385
18 28 7 61 14 75 16 49 9 216 66 248 86 17 11 32 17 32 13 0 -4 12 3 26 14 15
12 32 21 40 21 7 0 14 3 16 8 2 4 30 25 63 47 76 51 236 209 303 300 97 132
225 415 257 571 10 47 10 48 18 62 15 23 -8 11 -38 -20z"/>
<path d="M6940 9415 c0 -3 9 -23 20 -44 30 -61 119 -286 155 -396 64 -197 69
-216 54 -225 -7 -5 -16 -7 -19 -5 -3 2 -49 6 -101 10 -51 3 -114 7 -139 9 -25
2 -90 7 -145 11 -55 4 -115 8 -133 10 -32 3 -51 -8 -32 -20 5 -3 17 -23 27
-43 27 -58 211 -329 283 -417 164 -203 356 -358 565 -455 86 -41 229 -89 284
-96 18 -2 38 -7 43 -10 13 -8 269 -13 720 -15 208 0 380 -3 382 -7 2 -4 -7
-21 -21 -37 -110 -134 -187 -250 -243 -367 -22 -44 -41 -83 -44 -85 -2 -2 -25
9 -52 25 -73 42 -227 98 -299 108 -87 12 -148 15 -350 19 -223 4 -294 9 -343
20 -13 3 -43 8 -65 12 -40 5 -135 29 -356 87 -80 21 -111 25 -195 21 -116 -5
-144 -9 -241 -35 -80 -21 -404 -150 -438 -174 -21 -14 -21 -15 -2 -16 25 -2
35 -4 126 -25 41 -9 94 -20 119 -25 25 -5 56 -12 70 -15 142 -29 170 -35 209
-41 18 -3 43 -8 55 -10 11 -2 37 -7 56 -10 19 -3 43 -7 53 -10 10 -3 32 -7 50
-10 40 -5 174 -24 207 -30 14 -2 45 -6 70 -9 25 -3 59 -8 75 -10 36 -6 95 -12
190 -20 39 -3 86 -8 105 -10 19 -2 76 -7 125 -10 50 -3 97 -8 105 -10 8 -2 33
-6 55 -9 63 -8 185 -42 245 -69 30 -13 58 -26 62 -27 33 -11 241 -130 277
-159 l24 -18 -20 -29 c-57 -81 -110 -206 -121 -284 -8 -54 -7 -190 1 -243 10
-62 61 -200 100 -270 45 -79 153 -227 167 -227 5 0 10 8 11 18 3 64 58 172
118 231 58 57 90 70 92 38 12 -263 28 -361 85 -542 48 -151 143 -326 268 -490
46 -60 218 -246 223 -241 2 2 -8 34 -22 72 -38 102 -67 220 -80 329 -10 78
-16 565 -8 565 4 0 74 -34 154 -75 81 -41 155 -76 165 -78 11 -2 26 -7 34 -10
18 -7 64 -17 110 -25 76 -14 333 -6 410 12 41 10 86 20 100 22 14 2 92 38 174
79 82 41 152 72 156 70 9 -5 5 -508 -4 -565 -4 -25 -10 -58 -12 -75 -14 -83
-74 -274 -97 -302 -6 -9 -6 -13 1 -13 9 0 123 113 192 190 59 66 199 285 244
380 38 82 78 188 91 240 35 147 45 216 49 353 2 59 5 109 7 112 10 10 91 -39
118 -72 39 -48 101 -165 101 -191 0 -39 15 -30 70 39 95 119 176 298 195 429
25 172 -16 375 -101 492 -19 27 -34 52 -34 57 0 18 202 132 330 186 36 15 79
33 95 40 66 29 144 47 255 60 30 3 71 8 90 11 19 2 64 6 100 9 36 2 85 7 110
9 25 3 77 8 116 11 39 3 82 8 95 10 13 3 44 7 69 11 81 9 115 14 139 19 13 2
49 7 80 11 31 3 59 8 62 10 3 1 28 6 55 10 27 3 58 8 69 10 11 3 35 7 54 10
18 3 43 8 55 10 11 2 32 6 46 9 14 3 36 7 50 10 14 3 41 8 60 11 38 7 46 9
105 23 22 5 54 12 70 15 17 3 64 14 105 24 l75 19 -60 28 c-103 47 -195 81
-330 123 -170 53 -271 74 -353 74 -63 1 -91 -6 -327 -72 -38 -11 -82 -22 -97
-25 -33 -6 -67 -13 -123 -24 -22 -5 -47 -9 -55 -10 -8 0 -31 -3 -50 -6 -19 -3
-145 -7 -280 -9 -169 -3 -267 -9 -316 -20 -97 -21 -247 -70 -316 -104 l-57
-28 -30 61 c-60 118 -158 268 -214 327 -20 21 -77 95 -77 101 0 2 223 5 495 5
487 1 596 5 665 22 19 5 46 11 60 13 80 14 296 114 418 194 99 64 255 206 350
318 38 45 149 208 225 330 48 77 91 146 97 153 8 8 7 12 -2 13 -17 1 -112 -2
-163 -6 -22 -1 -92 -5 -155 -9 -63 -4 -141 -9 -172 -11 -69 -5 -68 -9 -33 125
35 131 90 285 147 415 26 60 48 110 48 111 0 1 -28 -7 -62 -17 -35 -11 -72
-22 -83 -24 -11 -3 -99 -31 -195 -63 l-175 -58 -1 -124 c0 -142 -7 -195 -36
-295 -111 -383 -436 -677 -808 -731 -52 -7 -183 -7 -220 1 -13 2 -40 7 -60 10
-19 3 -62 12 -95 20 -73 17 -209 13 -286 -8 -218 -61 -371 -203 -530 -490 -73
-134 -119 -207 -128 -207 -3 0 -6 199 -6 443 0 243 -1 445 -3 449 -1 4 -31 -8
-65 -27 -187 -101 -396 -106 -581 -13 -23 11 -49 27 -58 36 -15 12 -18 13 -19
1 -1 -15 -7 -541 -8 -764 -1 -127 -1 -129 -20 -110 -10 11 -52 81 -92 155 -40
74 -77 144 -83 155 -102 188 -278 330 -471 380 -60 15 -208 22 -255 11 -14 -4
-36 -8 -50 -11 -14 -3 -36 -7 -50 -10 -62 -13 -89 -17 -142 -24 -32 -4 -63 -6
-70 -5 -7 1 -46 4 -86 8 -193 18 -379 115 -551 288 -132 132 -208 263 -257
443 -23 85 -27 123 -30 260 l-3 160 -253 85 c-139 47 -259 89 -266 93 -6 5
-12 5 -12 2z m2337 -2338 c187 -113 336 -243 390 -338 63 -108 66 -132 66
-409 -1 -280 -2 -310 -12 -310 -5 0 -59 75 -119 168 -116 177 -283 402 -293
396 -4 -2 -5 -42 -3 -88 l3 -84 -40 9 c-115 26 -224 92 -280 168 -67 90 -82
221 -38 316 44 95 201 224 254 209 11 -3 44 -20 72 -37z m1618 -2 c115 -74
176 -175 176 -292 0 -82 -20 -151 -57 -201 -39 -51 -60 -68 -126 -102 -48 -25
-184 -70 -211 -70 -5 0 -5 15 -1 33 12 57 21 147 13 147 -13 0 -54 -55 -173
-236 -255 -385 -245 -377 -247 -232 -4 313 -3 466 3 491 17 70 65 145 142 223
129 128 373 292 414 277 9 -4 40 -21 67 -38z"/>
<path d="M7894 9144 c4 -33 9 -81 12 -109 17 -156 66 -259 173 -366 69 -68
180 -132 251 -144 51 -9 139 -6 185 7 39 10 53 13 98 23 46 10 127 38 127 44
-1 3 -46 38 -101 76 -55 39 -108 77 -119 85 -10 8 -88 65 -174 125 -86 61
-210 148 -276 195 -66 47 -134 94 -151 104 l-31 18 6 -58z"/>
<path d="M11780 8974 c-173 -124 -361 -258 -417 -296 -57 -39 -103 -74 -103
-78 0 -10 154 -59 235 -75 111 -21 238 6 342 74 161 104 238 249 258 488 3 37
8 78 10 91 2 12 1 22 -3 22 -4 0 -149 -102 -322 -226z"/>
<path d="M6619 8156 c-2 -3 -18 -7 -34 -10 -17 -3 -41 -8 -55 -11 -14 -3 -77
-15 -140 -26 -127 -22 -151 -26 -195 -34 -16 -4 -72 -17 -123 -31 -331 -90
-592 -263 -788 -524 -111 -147 -198 -350 -229 -530 -3 -19 -8 -42 -10 -50 -2
-8 -7 -42 -10 -75 -3 -33 -8 -76 -10 -95 -3 -19 -7 -71 -10 -115 -5 -93 -14
-100 101 74 91 138 128 183 264 321 321 326 740 588 1188 741 46 16 93 31 105
33 47 10 69 15 85 20 9 3 28 7 42 9 14 3 44 8 68 12 l42 7 -27 21 c-36 28
-122 115 -198 201 -33 37 -63 65 -66 62z"/>
<path d="M13308 8088 c-29 -35 -86 -96 -125 -137 -40 -41 -71 -76 -69 -78 3
-3 85 -25 216 -58 8 -2 60 -19 115 -38 434 -150 818 -384 1124 -687 137 -135
319 -359 387 -477 22 -40 31 -42 28 -5 -7 102 -16 194 -19 214 -2 12 -9 59
-15 104 -6 44 -13 91 -16 105 -3 13 -6 33 -8 44 -14 87 -101 278 -191 415 -72
109 -239 273 -360 351 -188 122 -434 215 -650 245 -16 2 -57 9 -90 14 -33 6
-73 12 -90 15 -16 3 -50 8 -75 11 -25 3 -55 10 -68 15 -36 14 -37 13 -94 -53z"/>
<path d="M6848 6725 c-2 -2 -30 -6 -62 -9 -33 -4 -78 -11 -100 -17 -23 -5 -49
-11 -58 -14 -9 -2 -27 -9 -40 -16 -13 -7 -24 -11 -26 -10 -4 4 -111 -39 -152
-62 -19 -10 -53 -29 -75 -40 -22 -12 -44 -25 -50 -29 -5 -5 -39 -29 -75 -55
-36 -26 -110 -95 -165 -153 -273 -286 -321 -324 -485 -382 -99 -36 -283 -33
-385 6 -84 33 -184 102 -258 179 l-39 41 -108 -114 c-84 -90 -106 -118 -99
-131 4 -9 49 -54 98 -100 162 -153 336 -240 506 -254 193 -17 345 9 515 88
115 53 211 127 385 298 215 212 298 278 425 339 46 23 99 41 120 42 3 0 12 4
20 8 33 18 170 22 675 23 472 0 525 2 526 16 1 24 1 249 0 303 l-1 47 -544 0
c-300 -1 -546 -2 -548 -4z"/>
<path d="M12064 6717 c-2 -7 -3 -89 -2 -182 l3 -170 465 -2 c663 -2 711 -6
845 -68 143 -65 199 -110 419 -331 161 -162 264 -242 384 -303 66 -33 170 -68
227 -77 22 -3 44 -8 48 -11 11 -7 213 -5 252 2 17 3 44 8 60 11 54 10 159 46
215 75 96 48 172 104 309 225 l35 32 -59 67 c-66 75 -156 165 -166 165 -3 0
-40 -26 -80 -58 -191 -150 -328 -195 -509 -168 -98 14 -217 70 -307 143 -68
55 -64 52 -128 128 -93 112 -155 177 -237 251 -40 37 -190 130 -261 163 -72
34 -227 87 -281 97 -17 3 -44 8 -61 11 -16 4 -286 8 -598 9 -448 3 -569 1
-573 -9z"/>
</g>
</svg>
